<?xml version="1.0" encoding="UTF-8"?> <!-- Generator: Adobe Illustrator 24.1.2, SVG Export Plug-In . SVG Version: 6.00 Build 0) --> <svg fill="#ffffff" xmlns="http://www.w3.org/2000/svg" xmlns:xlink="http://www.w3.org/1999/xlink" version="1.1" id="katman_1" x="0px" y="0px" viewBox="0 0 26.2 27.5" style="enable-background:new 0 0 26.2 27.5;" xml:space="preserve"> <g id="katman_2_1_"> <g id="katman_1-2"> <path d="M26.2,13l-8.7-8.4l-2,2.1L8.4,0L0,8.7l5.3,5.1l-5,5.2L9,27.5l7.1-7.4l1.7,1.6L26.2,13z M8.5,2.7l5.7,5.5L10.4,12l-1-1 l-0.7-0.6l-2,2.1l-4-3.8L8.5,2.7z M14.8,18.8l-5.7,6L3,19l3.7-3.9l0,0l2-2.1l0.3,0.3l0,0L9.8,14l0.6,0.6l0,0l2.8,2.7L14.8,18.8z M14.6,16l-2.8-2.7l5.8-6l6,5.8l-5.8,6L14.6,16z"></path> </g> </g> </svg> 